<?xml version="1.0" encoding="UTF-8" standalone="no"?>
<svg width="54px" height="20px" viewBox="0 0 54 20" version="1.1" xmlns="http://www.w3.org/2000/svg" xmlns:xlink="http://www.w3.org/1999/xlink">
    <!-- Generator: Sketch 46.1 (44463) - http://www.bohemiancoding.com/sketch -->
    <title>Group</title>
    <desc>Created with Sketch.</desc>
    <defs></defs>
    <g id="Page-1" stroke="none" stroke-width="1" fill="none" fill-rule="evenodd">
        <g id="Artboard" transform="translate(-384.000000, -225.000000)" fill="#4A4A4A">
            <g id="Group" transform="translate(384.000000, 225.000000)">
                <path d="M18.87945,3.58576052 L16.267616,6.11003236 C14.614772,4.40128595 12.687956,3.54692557 10.4871102,3.54692557 C8.56910409,3.54692557 6.96268754,4.16827858 5.66781242,5.41100324 C4.3729373,6.6537279 3.72550945,8.16396091 3.72550945,9.94174757 C3.72550945,11.7799445 4.39724347,13.3376419 5.74073165,14.6148867 C7.08421983,15.8921315 8.74145835,16.5307443 10.7124969,16.5307443 C11.9941139,16.5307443 13.0746335,16.2675323 13.9540879,15.7411003 C14.8335423,15.2146683 15.5428404,14.3905126 16.0820034,13.2686084 L10.4340781,13.2686084 L10.4340781,9.86407767 L20.2450282,9.86407767 L20.2715443,10.6666667 C20.2715443,12.3322629 19.829614,13.9115351 18.9457402,15.4045307 C18.0618664,16.8975263 16.917267,18.0366735 15.5119077,18.8220065 C14.1065483,19.6073394 12.4581484,20 10.5666585,20 C8.54258747,20 6.73730231,19.5706623 5.15074883,18.7119741 C3.56419536,17.8532859 2.30911338,16.6299972 1.38546526,15.0420712 C0.461817135,13.4541452 0,11.7411095 0,9.90291262 C0,7.38294317 0.852925426,5.19094783 2.55880187,3.32686084 C4.58287288,1.10894252 7.2167773,0 10.4605942,0 C12.1576319,0 13.7441615,0.306361553 15.2202308,0.919093851 C16.4664929,1.43689579 17.6862204,2.32577579 18.87945,3.58576052 Z M23.2678615,5.4368932 L26.9270808,5.4368932 L26.9270808,12.2200647 C26.9270808,13.5404597 27.0198861,14.4573869 27.2054996,14.9708738 C27.3911131,15.4843607 27.6894161,15.8834937 28.1004174,16.1682848 C28.5114187,16.4530759 29.0174289,16.5954693 29.618463,16.5954693 C30.2194972,16.5954693 30.7299267,16.4552333 31.1497668,16.1747573 C31.5696068,15.8942812 31.8811677,15.4822034 32.0844586,14.9385113 C32.2347172,14.5328998 32.3098453,13.6655946 32.3098453,12.3365696 L32.3098453,5.4368932 L35.9425485,5.4368932 L35.9425485,11.4045307 C35.9425485,13.86409 35.7436799,15.546921 35.3459367,16.4530744 C34.8598061,17.5577186 34.143879,18.4056065 33.1981341,18.9967638 C32.2523891,19.587921 31.0503387,19.8834951 29.591947,19.8834951 C28.0098129,19.8834951 26.7304247,19.538299 25.7537442,18.8478964 C24.7770636,18.1574939 24.089862,17.1952597 23.6921188,15.961165 C23.4092792,15.1067918 23.2678615,13.5534093 23.2678615,11.3009709 L23.2678615,5.4368932 Z M46.3501105,5.07443366 C47.7112761,5.07443366 48.9906643,5.40668492 50.1883133,6.07119741 C51.3859623,6.7357099 52.3206448,7.63753476 52.9923889,8.77669903 C53.664133,9.9158633 54,11.1456245 54,12.4660194 C54,13.7950444 53.6619233,15.0377504 52.9857599,16.1941748 C52.3095964,17.3505991 51.3881718,18.2545814 50.2214584,18.9061489 C49.054745,19.5577163 47.7687279,19.8834951 46.3633685,19.8834951 C44.2951038,19.8834951 42.5295924,19.1650557 41.0667812,17.7281553 C39.6039701,16.291255 38.8725755,14.5458571 38.8725755,12.4919094 C38.8725755,10.2912511 39.6989851,8.45739676 41.3518291,6.99029126 C42.8013822,5.71304647 44.4674593,5.07443366 46.3501105,5.07443366 Z M46.4031426,8.4012945 C45.2806229,8.4012945 44.3459404,8.7831677 43.599067,9.54692557 C42.8521937,10.3106834 42.4787626,11.2880199 42.4787626,12.4789644 C42.4787626,13.704429 42.8477744,14.6968678 43.585809,15.4563107 C44.3238436,16.2157535 45.2585261,16.5954693 46.3898846,16.5954693 C47.5212431,16.5954693 48.4625546,16.2114386 49.2138473,15.4433657 C49.96514,14.6752928 50.3407808,13.6871689 50.3407808,12.4789644 C50.3407808,11.2707599 49.971769,10.2891084 49.2337343,9.53398058 C48.4956997,8.77885275 47.5521786,8.4012945 46.4031426,8.4012945 Z M46.4464167,10.3304426 C45.845018,10.3304426 45.3442546,10.5350342 44.9441114,10.9442234 C44.5439682,11.3534126 44.3438996,11.8770282 44.3438996,12.5150859 C44.3438996,13.1716381 44.5416005,13.7033449 44.9370083,14.1102223 C45.3324161,14.5170997 45.8331795,14.7205354 46.4393136,14.7205354 C47.0454477,14.7205354 47.5497626,14.514788 47.9522735,14.1032869 C48.3547844,13.6917859 48.5560369,13.1623909 48.5560369,12.5150859 C48.5560369,11.867781 48.358336,11.3418536 47.9629282,10.937288 C47.5675204,10.5327224 47.0620216,10.3304426 46.4464167,10.3304426 Z" id="J.-Guo"></path>
                <circle id="Oval-2" cx="43.5" cy="2.5" r="1.5"></circle>
                <circle id="Oval-2" cx="49.5" cy="2.5" r="1.5"></circle>
            </g>
        </g>
    </g>
</svg>