<?xml version="1.0" encoding="UTF-8" standalone="no"?>
<svg width="860px" height="274px" viewBox="0 0 860 274" version="1.1" xmlns="http://www.w3.org/2000/svg" xmlns:xlink="http://www.w3.org/1999/xlink" style="background: #FFFFFF;">
    <!-- Generator: Sketch 46.2 (44496) - http://www.bohemiancoding.com/sketch -->
    <title>lilitofu-process</title>
    <desc>Created with Sketch.</desc>
    <defs>
        <polygon id="path-1" points="3.5 1 6 6 1 6"></polygon>
        <polygon id="path-2" points="3.5 1 6 6 1 6"></polygon>
        <polygon id="path-3" points="3.5 1 6 6 1 6"></polygon>
        <polygon id="path-4" points="3.5 1 6 6 1 6"></polygon>
        <polygon id="path-5" points="3.5 1 6 6 1 6"></polygon>
        <polygon id="path-6" points="3.5 1 6 6 1 6"></polygon>
        <polygon id="path-7" points="3.5 1 6 6 1 6"></polygon>
    </defs>
    <g id="Page-1" stroke="none" stroke-width="1" fill="none" fill-rule="evenodd">
        <g id="lilitofu-process">
            <text id="Define-goals" font-family="LucidaGrande, Lucida Grande" font-size="16" font-weight="normal" fill="#4A4A4A">
                <tspan x="20" y="143">Define goals</tspan>
            </text>
            <text id="Research" font-family="LucidaGrande, Lucida Grande" font-size="16" font-weight="normal" fill="#4A4A4A">
                <tspan x="164" y="143">Research</tspan>
            </text>
            <text id="Ideate-solutions" font-family="LucidaGrande, Lucida Grande" font-size="16" font-weight="normal" fill="#4A4A4A">
                <tspan x="303" y="143">Ideate solutions</tspan>
            </text>
            <text id="User-test" font-family="LucidaGrande, Lucida Grande" font-size="16" font-weight="normal" fill="#4A4A4A">
                <tspan x="474" y="143">User test</tspan>
            </text>
            <text id="Finalize-designs" font-family="LucidaGrande, Lucida Grande" font-size="16" font-weight="normal" fill="#4A4A4A">
                <tspan x="612" y="143">Finalize designs</tspan>
            </text>
            <g id="Group" transform="translate(70.000000, 70.000000)" stroke-linecap="round" stroke-linejoin="round">
                <g id="path/U" transform="translate(63.000000, 16.500000) rotate(90.000000) translate(-63.000000, -16.500000) translate(47.000000, -46.000000)" stroke="#61BFD6">
                    <path d="M31.7974684,125.000002 L15.8987342,125.000002 C7.11810575,125.000002 -4.54747351e-13,117.875967 -4.54747351e-13,109.089358 L-4.54747351e-13,15.910644 C-4.54747351e-13,7.12343796 7.11956754,0 15.9063134,0 L31.8126268,0" id="Path"></path>
                </g>
                <g id="tip/arrow" transform="translate(124.000000, 37.000000) rotate(90.000000) translate(-124.000000, -37.000000) translate(119.000000, 32.000000)">
                    <g id="Triangle" transform="translate(3.500000, 3.500000) rotate(90.000000) translate(-3.500000, -3.500000) ">
                        <use fill="#61BFD6" fill-rule="evenodd" xlink:href="#path-1"></use>
                        <path stroke="#61BFD6" stroke-width="1" d="M3.5,-0.118033989 L6.80901699,6.5 L0.190983006,6.5 L3.5,-0.118033989 Z"></path>
                    </g>
                </g>
            </g>
            <g id="Group" transform="translate(373.000000, 70.000000)" stroke-linecap="round" stroke-linejoin="round">
                <g id="path/U" transform="translate(63.000000, 16.500000) rotate(90.000000) translate(-63.000000, -16.500000) translate(47.000000, -46.000000)" stroke="#61BFD6">
                    <path d="M31.7974684,125.000002 L15.8987342,125.000002 C7.11810575,125.000002 -4.54747351e-13,117.875967 -4.54747351e-13,109.089358 L-4.54747351e-13,15.910644 C-4.54747351e-13,7.12343796 7.11956754,0 15.9063134,0 L31.8126268,0" id="Path"></path>
                </g>
                <g id="tip/arrow" transform="translate(124.000000, 37.000000) rotate(90.000000) translate(-124.000000, -37.000000) translate(119.000000, 32.000000)">
                    <g id="Triangle" transform="translate(3.500000, 3.500000) rotate(90.000000) translate(-3.500000, -3.500000) ">
                        <use fill="#61BFD6" fill-rule="evenodd" xlink:href="#path-2"></use>
                        <path stroke="#61BFD6" stroke-width="1" d="M3.5,-0.118033989 L6.80901699,6.5 L0.190983006,6.5 L3.5,-0.118033989 Z"></path>
                    </g>
                </g>
            </g>
            <g id="Group" transform="translate(132.500000, 184.000000) scale(-1, -1) translate(-132.500000, -184.000000) translate(68.000000, 163.000000)" stroke-linecap="round" stroke-linejoin="round">
                <g id="path/U" transform="translate(63.000000, 16.500000) rotate(90.000000) translate(-63.000000, -16.500000) translate(47.000000, -46.000000)" stroke="#61BFD6">
                    <path d="M31.7974684,125.000002 L15.8987342,125.000002 C7.11810575,125.000002 -4.54747351e-13,117.875967 -4.54747351e-13,109.089358 L-4.54747351e-13,15.910644 C-4.54747351e-13,7.12343796 7.11956754,0 15.9063134,0 L31.8126268,0" id="Path"></path>
                </g>
                <g id="tip/arrow" transform="translate(124.000000, 37.000000) rotate(90.000000) translate(-124.000000, -37.000000) translate(119.000000, 32.000000)">
                    <g id="Triangle" transform="translate(3.500000, 3.500000) rotate(90.000000) translate(-3.500000, -3.500000) ">
                        <use fill="#61BFD6" fill-rule="evenodd" xlink:href="#path-3"></use>
                        <path stroke="#61BFD6" stroke-width="1" d="M3.5,-0.118033989 L6.80901699,6.5 L0.190983006,6.5 L3.5,-0.118033989 Z"></path>
                    </g>
                </g>
            </g>
            <g id="Group" transform="translate(434.500000, 184.000000) scale(-1, -1) translate(-434.500000, -184.000000) translate(370.000000, 163.000000)" stroke-linecap="round" stroke-linejoin="round">
                <g id="path/U" transform="translate(63.000000, 16.500000) rotate(90.000000) translate(-63.000000, -16.500000) translate(47.000000, -46.000000)" stroke="#61BFD6">
                    <path d="M31.7974684,125.000002 L15.8987342,125.000002 C7.11810575,125.000002 -4.54747351e-13,117.875967 -4.54747351e-13,109.089358 L-4.54747351e-13,15.910644 C-4.54747351e-13,7.12343796 7.11956754,0 15.9063134,0 L31.8126268,0" id="Path"></path>
                </g>
                <g id="tip/arrow" transform="translate(124.000000, 37.000000) rotate(90.000000) translate(-124.000000, -37.000000) translate(119.000000, 32.000000)">
                    <g id="Triangle" transform="translate(3.500000, 3.500000) rotate(90.000000) translate(-3.500000, -3.500000) ">
                        <use fill="#61BFD6" fill-rule="evenodd" xlink:href="#path-4"></use>
                        <path stroke="#61BFD6" stroke-width="1" d="M3.5,-0.118033989 L6.80901699,6.5 L0.190983006,6.5 L3.5,-0.118033989 Z"></path>
                    </g>
                </g>
            </g>
            <text id="Ship" font-family="LucidaGrande, Lucida Grande" font-size="16" font-weight="normal" fill="#4A4A4A">
                <tspan x="806" y="143">Ship</tspan>
            </text>
            <g id="Group-2" transform="translate(252.000000, 135.000000)" stroke-linecap="round" stroke-linejoin="round">
                <g id="path/I" transform="translate(0.000000, 4.000000)" stroke="#61BFD6">
                    <path d="M4.54747351e-13,-5.68434189e-14 C4.54747351e-13,-5.68434189e-14 0.438917756,-5.68434189e-14 1.00307055,-5.68434189e-14 L23,-5.68434189e-14"></path>
                </g>
                <g id="tip/arrow" transform="translate(23.000000, 0.500000)">
                    <g id="Triangle" transform="translate(3.500000, 3.500000) rotate(90.000000) translate(-3.500000, -3.500000) ">
                        <use fill="#61BFD6" fill-rule="evenodd" xlink:href="#path-5"></use>
                        <path stroke="#61BFD6" stroke-width="1" d="M3.5,-0.118033989 L6.80901699,6.5 L0.190983006,6.5 L3.5,-0.118033989 Z"></path>
                    </g>
                </g>
            </g>
            <g id="Group-2" transform="translate(561.000000, 135.000000)" stroke-linecap="round" stroke-linejoin="round">
                <g id="path/I" transform="translate(0.000000, 4.000000)" stroke="#61BFD6">
                    <path d="M4.54747351e-13,-5.68434189e-14 C4.54747351e-13,-5.68434189e-14 0.438917756,-5.68434189e-14 1.00307055,-5.68434189e-14 L23,-5.68434189e-14"></path>
                </g>
                <g id="tip/arrow" transform="translate(23.000000, 0.500000)">
                    <g id="Triangle" transform="translate(3.500000, 3.500000) rotate(90.000000) translate(-3.500000, -3.500000) ">
                        <use fill="#61BFD6" fill-rule="evenodd" xlink:href="#path-6"></use>
                        <path stroke="#61BFD6" stroke-width="1" d="M3.5,-0.118033989 L6.80901699,6.5 L0.190983006,6.5 L3.5,-0.118033989 Z"></path>
                    </g>
                </g>
            </g>
            <g id="Group-2" transform="translate(755.000000, 135.000000)" stroke-linecap="round" stroke-linejoin="round">
                <g id="path/I" transform="translate(0.000000, 4.000000)" stroke="#61BFD6">
                    <path d="M4.54747351e-13,-5.68434189e-14 C4.54747351e-13,-5.68434189e-14 0.438917756,-5.68434189e-14 1.00307055,-5.68434189e-14 L23,-5.68434189e-14"></path>
                </g>
                <g id="tip/arrow" transform="translate(23.000000, 0.500000)">
                    <g id="Triangle" transform="translate(3.500000, 3.500000) rotate(90.000000) translate(-3.500000, -3.500000) ">
                        <use fill="#61BFD6" fill-rule="evenodd" xlink:href="#path-7"></use>
                        <path stroke="#61BFD6" stroke-width="1" d="M3.5,-0.118033989 L6.80901699,6.5 L0.190983006,6.5 L3.5,-0.118033989 Z"></path>
                    </g>
                </g>
            </g>
        </g>
    </g>
</svg>