<?xml version="1.0" encoding="UTF-8" standalone="no"?>
<svg width="16px" height="19px" viewBox="0 0 16 19" version="1.1" xmlns="http://www.w3.org/2000/svg" xmlns:xlink="http://www.w3.org/1999/xlink">
    <!-- Generator: Sketch 47 (45396) - http://www.bohemiancoding.com/sketch -->
    <title>Group</title>
    <desc>Created with Sketch.</desc>
    <defs></defs>
    <g id="Page-1" stroke="none" stroke-width="1" fill="none" fill-rule="evenodd">
        <g id="Artboard" transform="translate(-519.000000, -236.000000)" fill="#2D2D2D">
            <g id="Group" transform="translate(519.000000, 236.000000)">
                <path d="M8.35011048,4.07443366 C9.71127614,4.07443366 10.9906643,4.40668492 12.1883133,5.07119741 C13.3859623,5.7357099 14.3206448,6.63753476 14.9923889,7.77669903 C15.664133,8.9158633 16,10.1456245 16,11.4660194 C16,12.7950444 15.6619233,14.0377504 14.9857599,15.1941748 C14.3095964,16.3505991 13.3881718,17.2545814 12.2214584,17.9061489 C11.054745,18.5577163 9.76872787,18.8834951 8.36336852,18.8834951 C6.29510383,18.8834951 4.52959239,18.1650557 3.06678124,16.7281553 C1.6039701,15.291255 0.872575497,13.5458571 0.872575497,11.4919094 C0.872575497,9.29125113 1.69898511,7.45739676 3.35182912,5.99029126 C4.80138216,4.71304647 6.46745928,4.07443366 8.35011048,4.07443366 Z M8.40314265,7.4012945 C7.28062292,7.4012945 6.34594039,7.7831677 5.59906703,8.54692557 C4.85219366,9.31068343 4.47876258,10.2880199 4.47876258,11.4789644 C4.47876258,12.704429 4.84777436,13.6968678 5.58580899,14.4563107 C6.32384361,15.2157535 7.25852614,15.5954693 8.38988461,15.5954693 C9.52124307,15.5954693 10.4625546,15.2114386 11.2138473,14.4433657 C11.96514,13.6752928 12.3407808,12.6871689 12.3407808,11.4789644 C12.3407808,10.2707599 11.971769,9.28910841 11.2337343,8.53398058 C10.4956997,7.77885275 9.55217859,7.4012945 8.40314265,7.4012945 Z M8.4464167,9.33044262 C7.84501804,9.33044262 7.34425462,9.53503416 6.94411142,9.94422336 C6.54396821,10.3534126 6.34389961,10.8770282 6.34389961,11.5150859 C6.34389961,12.1716381 6.54160054,12.7033449 6.93700832,13.1102223 C7.3324161,13.5170997 7.83317952,13.7205354 8.4393136,13.7205354 C9.04544769,13.7205354 9.54976262,13.514788 9.95227353,13.1032869 C10.3547844,12.6917859 10.5560369,12.1623909 10.5560369,11.5150859 C10.5560369,10.867781 10.358336,10.3418536 9.96292818,9.93728799 C9.5675204,9.53272239 9.06202163,9.33044262 8.4464167,9.33044262 Z" id="J.-Guo"></path>
                <circle id="Oval-2" cx="5.5" cy="1.5" r="1.5"></circle>
                <circle id="Oval-2" cx="11.5" cy="1.5" r="1.5"></circle>
            </g>
        </g>
    </g>
</svg>