<?xml version="1.0" encoding="UTF-8" standalone="no"?>
<svg width="246px" height="67px" viewBox="0 0 246 67" version="1.1" xmlns="http://www.w3.org/2000/svg" xmlns:xlink="http://www.w3.org/1999/xlink">
    <!-- Generator: Sketch 41.2 (35397) - http://www.bohemiancoding.com/sketch -->
    <title>Group</title>
    <desc>Created with Sketch.</desc>
    <defs></defs>
    <g id="Page-1" stroke="none" stroke-width="1" fill="none" fill-rule="evenodd">
        <g id="Artboard" transform="translate(-28.000000, -117.000000)">
            <g id="Group-2" transform="translate(28.000000, 114.000000)">
                <g id="Group">
                    <path d="M6.83599981,6.96321112 L6.83599981,32.464 C6.83599981,33.872007 7.02799789,35.3333258 7.41199981,36.848 C7.79600173,38.3626742 8.43599533,39.7599936 9.33199981,41.04 C10.2280043,42.3200064 11.4013259,43.3653293 12.8519998,44.176 C14.3026737,44.9866707 16.0946558,45.392 18.2279998,45.392 C20.3613438,45.392 22.1533259,44.9866707 23.6039998,44.176 C25.0546737,43.3653293 26.2279953,42.3200064 27.1239998,41.04 C28.0200043,39.7599936 28.6599979,38.3626742 29.0439998,36.848 C29.4280017,35.3333258 29.6199998,33.872007 29.6199998,32.464 L29.6199998,6.96321112 C29.6199998,6.96321112 30.7715541,5.26790721 32.37898,5.26790721 C33.9864059,5.26790721 35.7639998,6.96321112 35.7639998,6.96321112 L35.7639998,33.424 C35.7639998,36.0693466 35.3160043,38.4693226 34.4199998,40.624 C33.5239953,42.7786774 32.2866744,44.6453254 30.7079998,46.224 C29.1293252,47.8026746 27.2733438,49.0186624 25.1399998,49.872 C23.0066558,50.7253376 20.7026788,51.152 18.2279998,51.152 C15.7533208,51.152 13.4493438,50.7253376 11.3159998,49.872 C9.18265581,49.0186624 7.32667437,47.8026746 5.74799981,46.224 C4.16932525,44.6453254 2.93200429,42.7786774 2.03599981,40.624 C1.13999533,38.4693226 0.691999809,36.0693466 0.691999809,33.424 L0.691999809,6.96321112 C0.691999809,6.96321112 2.21579474,5.26790721 3.82948532,5.26790721 C5.4431759,5.26790721 6.83599981,6.96321112 6.83599981,6.96321112 Z M43.6079998,19.664 C43.6079998,19.664 45.1247602,18.1960519 46.5490526,18.1960519 C47.973345,18.1960519 49.3679998,19.664 49.3679998,19.664 L49.3679998,24.016 L49.4959998,24.016 C50.6053387,22.3946586 52.1306568,21.1360045 54.0719998,20.24 C56.0133428,19.3439955 58.0079896,18.896 60.0559998,18.896 C62.4026782,18.896 64.5253236,19.3013293 66.4239998,20.112 C68.322676,20.9226707 69.9439931,22.0533261 71.2879998,23.504 C72.6320065,24.9546739 73.6666628,26.650657 74.3919998,28.592 C75.1173368,30.533343 75.4799998,32.6133222 75.4799998,34.832 C75.4799998,37.0933446 75.1173368,39.194657 74.3919998,41.136 C73.6666628,43.077343 72.6320065,44.7626595 71.2879998,46.192 C69.9439931,47.6213405 68.322676,48.7413293 66.4239998,49.552 C64.5253236,50.3626707 62.4026782,50.768 60.0559998,50.768 C57.8799889,50.768 55.8320094,50.3093379 53.9119998,49.392 C51.9919902,48.4746621 50.5200049,47.2266746 49.4959998,45.648 L49.3679998,45.648 L49.3679998,68.048 C49.3679998,68.048 48.0741747,69.5571663 46.5490526,69.5571663 C45.0239306,69.5571663 43.6079998,68.048 43.6079998,68.048 L43.6079998,19.664 Z M59.3519998,24.272 C57.8159921,24.272 56.4293393,24.538664 55.1919998,25.072 C53.9546603,25.605336 52.9093374,26.3306621 52.0559998,27.248 C51.2026622,28.1653379 50.5413355,29.2746602 50.0719998,30.576 C49.6026641,31.8773398 49.3679998,33.2959923 49.3679998,34.832 C49.3679998,36.3680077 49.6026641,37.7866602 50.0719998,39.088 C50.5413355,40.3893398 51.2026622,41.4986621 52.0559998,42.416 C52.9093374,43.3333379 53.9546603,44.058664 55.1919998,44.592 C56.4293393,45.125336 57.8159921,45.392 59.3519998,45.392 C60.8880075,45.392 62.2746603,45.125336 63.5119998,44.592 C64.7493393,44.058664 65.7946622,43.3333379 66.6479998,42.416 C67.5013374,41.4986621 68.1626641,40.3893398 68.6319998,39.088 C69.1013355,37.7866602 69.3359998,36.3680077 69.3359998,34.832 C69.3359998,33.2959923 69.1013355,31.8773398 68.6319998,30.576 C68.1626641,29.2746602 67.5013374,28.1653379 66.6479998,27.248 C65.7946622,26.3306621 64.7493393,25.605336 63.5119998,25.072 C62.2746603,24.538664 60.8880075,24.272 59.3519998,24.272 L59.3519998,24.272 Z M129.468,50 L103.164,50 C99.8359832,50 96.7533473,49.4026726 93.9159998,48.208 C91.0786523,47.0133274 88.6253435,45.3813437 86.5559998,43.312 C84.4866561,41.2426563 82.8546724,38.7893475 81.6599998,35.952 C80.4653272,33.1146525 79.8679998,30.0533498 79.8679998,26.768 C79.8679998,23.4826502 80.4653272,20.4213475 81.6599998,17.584 C82.8546724,14.7466525 84.4866561,12.2933437 86.5559998,10.224 C88.6253435,8.15465632 91.0786523,6.52267264 93.9159998,5.328 C96.7533473,4.13332736 99.8359832,3.536 103.164,3.536 C106.492016,3.536 109.574652,4.13332736 112.412,5.328 C115.249347,6.52267264 117.702656,8.15465632 119.772,10.224 C121.841343,12.2933437 123.473327,14.7466525 124.668,17.584 C125.862672,20.4213475 126.46,23.4826502 126.46,26.768 C126.46,28.6880096 126.204002,30.5973238 125.692,32.496 C125.179997,34.3946762 124.444005,36.1653251 123.484,37.808 C122.523995,39.4506749 121.372007,40.9226602 120.028,42.224 C118.683993,43.5253398 117.158675,44.538663 115.452,45.264 L129.468,45.392 C129.468,45.392 130.359807,46.6213164 130.359807,47.7731083 C130.359807,48.9249003 129.468,50 129.468,50 Z M85.6279998,26.768 C85.6279998,29.3280128 86.0759953,31.7173222 86.9719998,33.936 C87.8680043,36.1546778 89.0946587,38.0853251 90.6519998,39.728 C92.2093409,41.3706749 94.0546558,42.6613286 96.1879998,43.6 C98.3213438,44.5386714 100.646654,45.008 103.164,45.008 C105.638679,45.008 107.953322,44.5386714 110.108,43.6 C112.262677,42.6613286 114.118659,41.3706749 115.676,39.728 C117.233341,38.0853251 118.459995,36.1546778 119.356,33.936 C120.252004,31.7173222 120.7,29.3280128 120.7,26.768 C120.7,24.2506541 120.262671,21.8826778 119.388,19.664 C118.513329,17.4453222 117.297341,15.5146749 115.74,13.872 C114.182659,12.2293251 112.337344,10.9280048 110.204,9.968 C108.070656,9.0079952 105.724013,8.528 103.164,8.528 C100.603987,8.528 98.2573438,9.0079952 96.1239998,9.968 C93.9906558,10.9280048 92.1453409,12.2293251 90.5879998,13.872 C89.0306587,15.5146749 87.8146708,17.4453222 86.9399998,19.664 C86.0653288,21.8826778 85.6279998,24.2506541 85.6279998,26.768 L85.6279998,26.768 Z M159.968,50 C159.907164,50.7097007 158.111719,51.1522351 156.783586,51 C155.271682,50.8267004 154.208,50 154.208,50 L154.208,45.328 L154.08,45.328 C153.354663,46.9493414 152.096009,48.2613283 150.304,49.264 C148.511991,50.2666717 146.442678,50.768 144.096,50.768 C142.602659,50.768 141.194673,50.5440022 139.872,50.096 C138.549327,49.6479978 137.386671,48.9546714 136.384,48.016 C135.381328,47.0773286 134.581336,45.8720074 133.984,44.4 C133.386663,42.9279926 133.088,41.1893434 133.088,39.184 L133.088,19.664 C133.088,19.664 134.56049,18.6156584 135.991458,18.6156584 C137.422425,18.6156584 138.848,19.664 138.848,19.664 L138.848,37.584 C138.848,38.992007 139.039998,40.1973283 139.424,41.2 C139.808002,42.2026717 140.319997,43.0133302 140.96,43.632 C141.600003,44.2506698 142.335996,44.6986653 143.168,44.976 C144.000004,45.2533347 144.863995,45.392 145.76,45.392 C146.954672,45.392 148.063995,45.2000019 149.088,44.816 C150.112005,44.4319981 151.007996,43.8240042 151.776,42.992 C152.544004,42.1599958 153.141331,41.1040064 153.568,39.824 C153.994669,38.5439936 154.208,37.0293421 154.208,35.28 L154.208,19.664 C154.208,19.664 155.939795,18.6156584 157.301768,18.6156584 C158.663742,18.6156584 159.968,19.664 159.968,19.664 C159.968,19.664 160.098088,48.4823988 159.968,50 Z M171.524,36.944 C171.524,38.2666733 171.811997,39.4719946 172.388,40.56 C172.964003,41.6480054 173.721328,42.5759962 174.66,43.344 C175.598671,44.1120038 176.68666,44.7093312 177.924,45.136 C179.161339,45.5626688 180.441327,45.776 181.764,45.776 C183.556009,45.776 185.113327,45.3600042 186.436,44.528 C187.758673,43.6959958 188.974661,42.5973402 190.084,41.232 C190.084,41.232 192.368207,41.4885536 193.132841,42.0732736 C193.818874,42.5978869 194.436,44.56 194.436,44.56 C191.235984,48.6986874 186.756029,50.768 180.996,50.768 C178.606655,50.768 176.441343,50.3626707 174.5,49.552 C172.558657,48.7413293 170.916007,47.6213405 169.572,46.192 C168.227993,44.7626595 167.193337,43.077343 166.468,41.136 C165.742663,39.194657 165.38,37.0933446 165.38,34.832 C165.38,32.5706554 165.774663,30.469343 166.564,28.528 C167.353337,26.586657 168.441326,24.9013405 169.828,23.472 C171.214673,22.0426595 172.86799,20.9226707 174.788,20.112 C176.708009,19.3013293 178.798655,18.896 181.06,18.896 C183.748013,18.896 186.019991,19.3653286 187.876,20.304 C189.732009,21.2426714 191.257327,22.4693258 192.452,23.984 C193.646672,25.4986742 194.510664,27.2053238 195.044,29.104 C195.577336,31.0026762 195.844,32.9333235 195.844,34.896 L195.844,36.944 L171.524,36.944 Z M189.7,32.336 C189.657333,31.0559936 189.454668,29.882672 189.092,28.816 C188.729331,27.749328 188.185337,26.8213373 187.46,26.032 C186.734663,25.2426627 185.828005,24.6240022 184.74,24.176 C183.651994,23.7279978 182.382674,23.504 180.932,23.504 C179.523993,23.504 178.233339,23.770664 177.06,24.304 C175.886661,24.837336 174.894671,25.5306624 174.084,26.384 C173.273329,27.2373376 172.644002,28.1866614 172.196,29.232 C171.747998,30.2773386 171.524,31.3119949 171.524,32.336 L189.7,32.336 Z M217.384,27.28 C216.70133,26.4266624 215.858671,25.7120029 214.856,25.136 C213.853328,24.5599971 212.626674,24.272 211.176,24.272 C209.81066,24.272 208.626671,24.5599971 207.624,25.136 C206.621328,25.7120029 206.12,26.5546611 206.12,27.664 C206.12,28.5600045 206.407997,29.2853306 206.984,29.84 C207.560003,30.3946694 208.242663,30.842665 209.032,31.184 C209.821337,31.525335 210.663995,31.7813325 211.56,31.952 C212.456004,32.1226675 213.223997,32.2719994 213.864,32.4 C215.101339,32.6986682 216.263994,33.0613312 217.352,33.488 C218.440005,33.9146688 219.378663,34.4693299 220.168,35.152 C220.957337,35.8346701 221.575998,36.6666618 222.024,37.648 C222.472002,38.6293382 222.696,39.823993 222.696,41.232 C222.696,42.9386752 222.333337,44.3999939 221.608,45.616 C220.882663,46.8320061 219.944006,47.8239962 218.792,48.592 C217.639994,49.3600038 216.328007,49.914665 214.856,50.256 C213.383992,50.597335 211.901341,50.768 210.408,50.768 C207.890654,50.768 205.682676,50.3840038 203.784,49.616 C201.885324,48.8479962 200.189341,47.4400102 198.696,45.392 C198.064868,44.5264474 199.204955,43.1641573 199.976,42.5291792 C200.655622,41.9694907 203.048,41.808 203.048,41.808 C203.986671,42.7466714 205.031994,43.578663 206.184,44.304 C207.336006,45.029337 208.743991,45.392 210.408,45.392 C211.133337,45.392 211.869329,45.3173341 212.616,45.168 C213.36267,45.0186659 214.023997,44.7840016 214.6,44.464 C215.176003,44.1439984 215.645331,43.7386691 216.008,43.248 C216.370668,42.7573309 216.552,42.1920032 216.552,41.552 C216.552,40.6986624 216.285336,39.9946694 215.752,39.44 C215.218664,38.8853306 214.57867,38.4480016 213.832,38.128 C213.085329,37.8079984 212.296004,37.552001 211.464,37.36 C210.631996,37.167999 209.896003,37.0080006 209.256,36.88 C208.01866,36.5813318 206.845339,36.2400019 205.736,35.856 C204.626661,35.4719981 203.645337,34.9600032 202.792,34.32 C201.938662,33.6799968 201.256002,32.8693382 200.744,31.888 C200.231997,30.9066618 199.976,29.6906739 199.976,28.24 C199.976,26.6613254 200.306663,25.2853392 200.968,24.112 C201.629336,22.9386608 202.503994,21.9680038 203.592,21.2 C204.680005,20.4319962 205.917326,19.8560019 207.304,19.472 C208.690673,19.0879981 210.087993,18.896 211.496,18.896 C213.54401,18.896 215.506657,19.2799962 217.384,20.048 C219.261343,20.8160038 220.754661,22.095991 221.864,23.888 C221.864,23.888 221.174435,26.0336698 220.448961,26.582957 C219.681102,27.1643365 217.384,27.28 217.384,27.28 Z M244.428,24.656 L236.172,24.656 L236.172,38.416 C236.172,39.2693376 236.193333,40.1119958 236.236,40.944 C236.278667,41.7760042 236.438665,42.5226634 236.716,43.184 C236.993335,43.8453366 237.419997,44.3786646 237.996,44.784 C238.572003,45.1893354 239.414661,45.392 240.524,45.392 C241.20667,45.392 241.910663,45.3280006 242.636,45.2 C243.361337,45.0719994 244.022663,44.837335 244.62,44.496 C244.62,44.496 245.830329,46.6704557 245.830329,47.6725778 C245.830329,48.419789 244.62,49.744 244.62,49.744 C243.93733,50.1280019 243.052005,50.3946659 241.964,50.544 C240.875994,50.6933341 240.033336,50.768 239.436,50.768 C237.217322,50.768 235.500006,50.4586698 234.284,49.84 C233.067994,49.2213302 232.172003,48.4213382 231.596,47.44 C231.019997,46.4586618 230.678667,45.3600061 230.572,44.144 C230.465333,42.9279939 230.412,41.7013395 230.412,40.464 L230.412,24.656 L223.756,24.656 C223.756,24.656 223.023447,23.3922979 223.023447,22.1890907 C223.023447,20.9858836 223.756,19.664 223.756,19.664 L230.412,19.664 L230.412,11.152 C230.412,11.152 231.816918,9.92771126 233.270187,9.92771126 C234.723457,9.92771126 236.172,11.152 236.172,11.152 L236.172,19.664 L244.428,19.664 C244.428,19.664 245.305835,20.9588674 245.305835,22.1890907 C245.305835,23.4193141 244.428,24.656 244.428,24.656 Z" id="UpQuest" fill="#27AEAB"></path>
                    <g id="Group-4" transform="translate(81.000000, 0.000000)">
                        <polygon id="Triangle-2" fill="#27AEAB" transform="translate(7.618794, 7.004855) rotate(325.000000) translate(-7.618794, -7.004855) " points="7.61879403 3.00485501 14.118794 11.004855 1.11879403 11.004855"></polygon>
                        <g id="Group-3" transform="translate(6.000000, 15.000000)">
                            <circle id="Oval" stroke="#27AEAB" stroke-width="3" cx="7.5" cy="7.5" r="7.5"></circle>
                            <circle id="Oval-2" fill="#27AEAB" cx="5.375" cy="5.375" r="3.5"></circle>
                        </g>
                        <path d="M17.5,29.5 L20.5,32.5" id="Line" stroke="#27AEAB" stroke-width="3" stroke-linecap="square"></path>
                        <path d="M24.5,30.5 L21.5,33.5" id="Line" stroke="#27AEAB" stroke-width="3" stroke-linecap="square"></path>
                        <polygon id="Triangle-2" fill="#27AEAB" transform="translate(37.618794, 7.004855) rotate(35.000000) translate(-37.618794, -7.004855) " points="37.618794 3.00485501 44.118794 11.004855 31.118794 11.004855"></polygon>
                        <circle id="Oval" stroke="#27AEAB" stroke-width="3" cx="30.5" cy="22.5" r="7.5"></circle>
                        <circle id="Oval-2" fill="#27AEAB" cx="28.375" cy="20.375" r="3.5"></circle>
                    </g>
                </g>
            </g>
        </g>
    </g>
</svg>